<svg width="27" height="28" viewBox="0 0 27 28" fill="none" xmlns="http://www.w3.org/2000/svg">
<path d="M11.2555 8.56984H12.5601C13.2521 8.56984 13.9157 8.84474 14.4051 9.33406C14.8944 9.82338 15.1693 10.487 15.1693 11.1791M15.1693 11.1791V12.4837M15.1693 11.1791C15.1693 10.8331 15.3067 10.5012 15.5514 10.2566C15.7961 10.0119 16.1279 9.87445 16.4739 9.87445C17.1659 9.87445 17.8296 10.1493 18.3189 10.6387C18.8082 11.128 19.0831 11.7917 19.0831 12.4837M19.0831 12.4837V13.7883M19.0831 12.4837C19.0831 11.8 19.6963 11.2808 20.3708 11.393L20.8169 11.4687C21.426 11.5702 21.9792 11.8845 22.3784 12.3555C22.7775 12.8266 22.9967 13.4239 22.9969 14.0414V15.9631C22.9969 18.798 22.9969 20.2161 22.5651 21.3446C22.3146 21.9995 21.6532 22.8344 21.1248 23.4372C20.6598 23.9535 20.3979 24.621 20.3877 25.3158V26.8344M11.2555 11.1791V2.6991C11.2555 2.18009 11.0493 1.68235 10.6823 1.31535C10.3153 0.948362 9.81756 0.742188 9.29856 0.742188C8.77955 0.742188 8.2818 0.948362 7.91481 1.31535C7.54782 1.68235 7.34164 2.18009 7.34164 2.6991V15.6956L5.22818 13.5756C5.00963 13.3561 4.74711 13.1853 4.45787 13.0745C4.16863 12.9637 3.8592 12.9153 3.54993 12.9325C3.24066 12.9498 2.93854 13.0323 2.66341 13.1746C2.38829 13.3169 2.14639 13.5158 1.95361 13.7583C1.64865 14.1407 1.47902 14.6134 1.47123 15.1025C1.46344 15.5916 1.61793 16.0695 1.91056 16.4614L6.60715 22.46C7.50602 23.6081 7.99395 25.3771 7.99395 26.8344M18.4308 4.00371H26.2585M18.4308 4.00371C18.4308 3.09048 21.0322 1.38405 21.6923 0.742188M18.4308 4.00371C18.4308 4.91693 21.0322 6.62336 21.6923 7.26523" stroke="#ffffff" stroke-width="1.30461" stroke-linecap="round" stroke-linejoin="round"/>
</svg>
