<svg width="146" height="146" viewBox="0 0 146 146" fill="none" xmlns="http://www.w3.org/2000/svg">
<path d="M100.535 23.4872L101.118 23.0621C101.3 23.4164 101.584 23.6997 101.954 23.9123C102.254 24.0855 102.522 24.1563 102.751 24.1248C102.98 24.0933 103.161 23.9674 103.287 23.7312C103.405 23.5187 103.421 23.3062 103.334 23.0936C103.248 22.8811 103.051 22.6843 102.735 22.5111L102.388 22.3143L103.524 21.1493L104.17 21.5114L103.453 22.2592C103.847 22.5347 104.092 22.8417 104.186 23.1802C104.281 23.5187 104.241 23.8651 104.044 24.2035C103.816 24.605 103.484 24.8412 103.035 24.8963C102.585 24.9592 102.112 24.8412 101.592 24.5499C101.095 24.2744 100.74 23.9202 100.519 23.4872H100.535ZM101.528 19.3387C100.945 18.402 100.653 17.3865 100.637 16.3002C100.622 15.2139 100.898 14.159 101.473 13.1436C102.049 12.1281 102.806 11.3409 103.745 10.7977C104.683 10.2467 105.708 9.97905 106.82 9.9948C107.924 10.0105 109.005 10.3097 110.054 10.9001C110.842 11.3409 111.489 11.884 112.009 12.5138C112.53 13.1436 112.877 13.852 113.058 14.6156L111.946 14.9226C111.591 13.6237 110.787 12.6161 109.525 11.9077C108.689 11.4354 107.822 11.1992 106.923 11.1992C106.024 11.1992 105.188 11.4196 104.431 11.8604C103.666 12.3091 103.051 12.9389 102.585 13.7654C102.12 14.592 101.891 15.4421 101.907 16.3238C101.923 17.2054 102.159 18.032 102.633 18.7956C103.098 19.567 103.752 20.181 104.588 20.6533C105.858 21.3697 107.144 21.535 108.437 21.1493L108.745 22.2592C107.995 22.5032 107.215 22.5662 106.394 22.456C105.574 22.3458 104.77 22.0703 103.981 21.6294C102.932 21.0391 102.12 20.2755 101.536 19.3387H101.528Z" fill="#371C50"/>
<path d="M121.22 34.5398L120.416 35.3033L114.47 29.116L123.239 20.7246L129.004 26.723L128.2 27.4866L123.326 22.4092L120.203 25.3926L124.548 29.919L123.76 30.6747L119.414 26.1483L116.157 29.2656L121.213 34.5319L121.22 34.5398Z" fill="#371C50"/>
<path d="M140.763 45.7416L127.506 46.5288L126.922 45.4031L135.25 35.0752L135.889 36.3032L128.649 45.2535L140.171 44.5844L140.771 45.7416H140.763Z" fill="#371C50"/>
<path d="M133.634 66.6179L136.977 63.1936C136.891 62.8945 136.812 62.5796 136.749 62.249L136.165 59.0451L132.38 59.73L132.151 58.4705L144.099 56.2979L144.911 60.7612C145.187 62.2805 145.045 63.54 144.469 64.5397C143.902 65.5316 142.979 66.1456 141.701 66.3817C140.771 66.5549 139.935 66.4605 139.209 66.1062C138.484 65.752 137.892 65.1616 137.451 64.3429L133.886 68.0033L133.634 66.6258V66.6179ZM139.099 64.587C139.738 65.1144 140.526 65.2954 141.473 65.1222C142.443 64.9491 143.129 64.5004 143.531 63.784C143.933 63.0677 144.028 62.1152 143.815 60.9344L143.239 57.762L137.245 58.8483L137.821 62.0207C138.034 63.2015 138.46 64.0595 139.099 64.587Z" fill="#371C50"/>
<path d="M134.075 85.2263L132.971 85.1004L133.933 76.583L145.999 77.9448L145.061 86.2025L143.957 86.0765L144.746 79.0863L140.455 78.5982L139.746 84.8249L138.657 84.6989L139.367 78.4723L134.888 77.9685L134.067 85.2106L134.075 85.2263Z" fill="#371C50"/>
<path d="M130.503 95.6018C131.37 94.9249 132.348 94.5234 133.437 94.3974C134.517 94.2636 135.597 94.4289 136.67 94.8934C137.742 95.3578 138.602 96.0269 139.249 96.9007C139.895 97.7745 140.274 98.7663 140.377 99.8684C140.479 100.97 140.298 102.073 139.817 103.175C139.462 104.001 138.989 104.702 138.413 105.284C137.837 105.867 137.175 106.284 136.433 106.544L136.007 105.473C137.261 104.985 138.176 104.08 138.752 102.75C139.13 101.868 139.28 100.978 139.186 100.089C139.091 99.1914 138.783 98.3885 138.263 97.68C137.735 96.9715 137.041 96.4284 136.173 96.0505C135.306 95.6727 134.43 95.5389 133.547 95.6491C132.664 95.7593 131.875 96.082 131.157 96.6252C130.44 97.1683 129.896 97.8847 129.517 98.7663C128.941 100.105 128.91 101.388 129.43 102.631L128.358 103.057C128.034 102.34 127.892 101.569 127.916 100.742C127.94 99.9156 128.129 99.0891 128.484 98.2625C128.957 97.1605 129.635 96.271 130.503 95.594V95.6018Z" fill="#371C50"/>
<path d="M131.615 116.856L130.834 117.872L121.173 110.519L121.954 109.504L131.615 116.856ZM132.885 117.887C133.113 117.856 133.318 117.911 133.5 118.053C133.681 118.194 133.791 118.376 133.823 118.604C133.855 118.832 133.799 119.037 133.657 119.218C133.515 119.399 133.334 119.509 133.105 119.541C132.877 119.572 132.672 119.517 132.49 119.375C132.309 119.234 132.198 119.053 132.167 118.824C132.135 118.596 132.191 118.391 132.333 118.21C132.474 118.029 132.656 117.919 132.885 117.887Z" fill="#371C50"/>
<path d="M109.572 128.286L105.692 130.648L105.132 129.727L109.012 127.365L109.572 128.286Z" fill="#371C50"/>
<path d="M83.7132 134.285C84.6832 135.088 85.2589 136.347 85.4324 138.055L86.158 144.959L84.8804 145.093L84.1627 138.236C84.0129 136.835 83.587 135.82 82.8851 135.198C82.1832 134.576 81.229 134.324 80.0303 134.45C78.8236 134.576 77.9404 135.017 77.3804 135.772C76.8205 136.528 76.6155 137.607 76.7574 139.008L77.4751 145.864L76.229 145.998L75.5035 139.094C75.3221 137.386 75.6218 136.032 76.3947 135.048C77.1675 134.064 78.3426 133.49 79.9041 133.324C81.4656 133.159 82.7353 133.482 83.7053 134.285H83.7132Z" fill="#371C50"/>
<path d="M56.5841 132.71L56.797 131.624L66.5682 133.553L66.3947 134.419L56.5289 142.802L64.3048 144.337L64.0919 145.423L54.644 143.558L54.8175 142.692L64.6676 134.308L56.5841 132.71Z" fill="#371C50"/>
<path d="M47.3807 129.31C47.7199 130.522 47.4754 131.884 46.6552 133.387L43.3272 139.488L42.1994 138.874L45.5038 132.82C46.182 131.585 46.4028 130.506 46.1741 129.601C45.9454 128.688 45.3066 127.948 44.2499 127.373C43.1852 126.791 42.2073 126.657 41.3161 126.956C40.425 127.263 39.6442 128.034 38.966 129.27L35.6616 135.324L34.5654 134.725L37.8935 128.625C38.7215 127.113 39.731 126.169 40.9297 125.799C42.1284 125.429 43.4218 125.61 44.8019 126.365C46.182 127.121 47.0416 128.097 47.3807 129.31Z" fill="#371C50"/>
<path d="M17.0342 119.092L25.93 110.834L26.6476 111.605L24.747 124.012L31.963 117.313L32.8384 118.249L23.9426 126.507L23.225 125.735L25.1098 113.314L17.8938 120.013L17.0342 119.084V119.092Z" fill="#371C50"/>
<path d="M1.39533 90.3198C1.29281 90.493 1.13508 90.6032 0.930035 90.6583C0.72499 90.7055 0.535718 90.674 0.362218 90.5638C0.188718 90.4536 0.0704232 90.304 0.0231051 90.1151C-0.024213 89.9105 -0.000553934 89.7215 0.109855 89.5483C0.212378 89.3752 0.370105 89.265 0.57515 89.2099C0.788081 89.1548 0.977354 89.1862 1.15085 89.2886C1.32435 89.3909 1.42688 89.5483 1.48208 89.753C1.5294 89.9577 1.50574 90.1466 1.39533 90.3198ZM2.14453 93.3111C2.04201 93.4843 1.88428 93.5945 1.67135 93.6496C1.46631 93.6968 1.27703 93.6732 1.10354 93.563C0.930035 93.4607 0.819626 93.3032 0.764422 93.0986C0.717104 92.9096 0.748649 92.7207 0.851172 92.5397C0.953694 92.3586 1.11142 92.2405 1.30858 92.1933C1.51363 92.1461 1.7029 92.1697 1.8764 92.2799C2.0499 92.3822 2.16031 92.5397 2.21551 92.7443C2.27071 92.949 2.23917 93.1301 2.13665 93.3032L2.14453 93.3111ZM15.0939 91.351C14.81 92.4295 14.2737 93.3426 13.493 94.0983C12.7122 94.854 11.758 95.3735 10.6224 95.6491C9.48672 95.9246 8.39841 95.9167 7.35741 95.6097C6.31641 95.3027 5.41737 94.7359 4.66028 93.9172C3.90319 93.0986 3.38269 92.1067 3.0909 90.9417C2.7991 89.7766 2.7991 88.6588 3.0909 87.5961C3.3748 86.5334 3.91108 85.6203 4.69182 84.8567C5.47257 84.0931 6.43471 83.5736 7.57034 83.2902C8.70598 83.0147 9.79429 83.0304 10.8432 83.3374C11.8921 83.6523 12.7911 84.2112 13.5403 85.022C14.2895 85.8328 14.81 86.8168 15.0939 87.9818C15.3857 89.1469 15.3857 90.2647 15.0939 91.3431V91.351ZM12.7201 85.8958C12.1129 85.2503 11.3873 84.8016 10.5356 84.5654C9.68388 84.3214 8.80061 84.3135 7.87791 84.5418C6.95521 84.7701 6.17446 85.1873 5.53566 85.7935C4.89687 86.4075 4.45523 87.1395 4.21864 87.9897C3.98205 88.8399 3.98205 89.7373 4.21864 90.6662C4.44735 91.595 4.86532 92.3901 5.47257 93.0435C6.07982 93.6968 6.81325 94.1455 7.66498 94.3974C8.5167 94.6493 9.40786 94.6572 10.3227 94.4289C11.2454 94.2006 12.0261 93.7834 12.6649 93.1615C13.3037 92.5475 13.7454 91.8076 13.9741 90.9495C14.2106 90.0915 14.2106 89.1941 13.9741 88.2652C13.7454 87.3363 13.3274 86.5492 12.7201 85.8958Z" fill="#371C50"/>
<path d="M2.16832 59.5488L14.2423 60.8319L14.1083 62.0521L4.44747 61.0287L12.0657 66.6257L12.0026 67.2318L3.42225 71.1126L13.0357 72.136L12.9016 73.3561L0.827637 72.073L0.938046 71.026L10.449 66.7437L2.05002 60.6115L2.16043 59.5646L2.16832 59.5488Z" fill="#371C50"/>
<path d="M5.97744 43.1831C5.78817 43.254 5.59889 43.2382 5.40174 43.1438C5.21246 43.0493 5.08628 42.9155 5.02319 42.7187C4.9601 42.5219 4.96799 42.333 5.06262 42.1519C5.14937 41.9787 5.29133 41.8528 5.48849 41.7819C5.68564 41.7111 5.87492 41.719 6.06419 41.8134C6.25346 41.9079 6.37964 42.0496 6.44273 42.2385C6.50582 42.4353 6.49794 42.6242 6.41119 42.8053C6.31655 42.9942 6.18248 43.1202 5.99321 43.191L5.97744 43.1831ZM16.5136 50.0632C15.3149 50.4568 13.9427 50.2836 12.3969 49.5358L6.13517 46.5051L6.6951 45.3479L12.9095 48.355C14.1792 48.969 15.2676 49.1422 16.1666 48.8745C17.0656 48.6069 17.7833 47.9299 18.3038 46.8514C18.8322 45.7573 18.9268 44.7811 18.5798 43.9074C18.2328 43.0336 17.4284 42.2936 16.1508 41.6796L9.93639 38.6726L10.4805 37.5469L16.7423 40.5775C18.2959 41.3254 19.2817 42.2936 19.7155 43.4665C20.1492 44.6473 20.0151 45.9383 19.3369 47.3552C18.6508 48.7643 17.7123 49.6696 16.5136 50.071V50.0632ZM7.31023 40.4044C7.12096 40.4752 6.9238 40.4595 6.74242 40.3729C6.55314 40.2784 6.42696 40.1367 6.36387 39.9399C6.30078 39.7431 6.30867 39.5542 6.39542 39.381C6.49005 39.1921 6.63201 39.0661 6.82128 39.0032C7.01844 38.9402 7.20771 38.9481 7.3891 39.0425C7.58625 39.137 7.72032 39.2787 7.77553 39.4676C7.83073 39.6565 7.82285 39.8455 7.72821 40.0344C7.64146 40.2233 7.4995 40.3493 7.30235 40.4122L7.31023 40.4044Z" fill="#371C50"/>
<path d="M32.6881 29.0683L27.9484 28.3835C27.7592 28.6354 27.5462 28.8794 27.3175 29.1234L25.062 31.4771L27.8459 34.1299L26.9626 35.0588L18.1772 26.691L21.316 23.4084C22.3886 22.2906 23.4926 21.6687 24.6362 21.5428C25.7797 21.4168 26.8207 21.8026 27.7592 22.6921C28.4453 23.3455 28.8554 24.0697 28.9973 24.8647C29.1393 25.6598 29.0052 26.4785 28.603 27.3208L33.666 28.0528L32.696 29.0683H32.6881ZM27.8223 25.8487C27.8775 25.0222 27.5541 24.2822 26.8601 23.621C26.1503 22.944 25.3854 22.6527 24.5652 22.7472C23.745 22.8417 22.9169 23.3297 22.0889 24.1956L19.857 26.5257L24.2576 30.7214L26.4895 28.3913C27.3175 27.5254 27.7592 26.6753 27.8144 25.8487H27.8223Z" fill="#371C50"/>
<path d="M34.5103 12.5058L35.6222 11.8604L41.1584 21.3853L47.0417 17.9768L47.6016 18.9372L40.6064 22.9912L34.5103 12.5058Z" fill="#371C50"/>
<path d="M55.6139 14.6081C54.5492 13.939 53.8158 12.7661 53.4136 11.0893L51.7969 4.33527L53.0429 4.03613L54.6517 10.743C54.983 12.1127 55.535 13.0573 56.3158 13.5847C57.0965 14.1121 58.0744 14.2381 59.2416 13.9547C60.4245 13.6713 61.2447 13.1203 61.7021 12.3016C62.1595 11.4829 62.2226 10.3809 61.8993 9.01116L60.2905 2.30432L61.505 2.01306L63.1217 8.76714C63.5239 10.4438 63.4056 11.8136 62.7668 12.892C62.128 13.9705 61.0397 14.6947 59.5097 15.0568C57.9798 15.4189 56.6785 15.2693 55.6139 14.6002V14.6081ZM54.2732 2.10752C54.0997 2.00519 53.9893 1.84775 53.9341 1.63521C53.8868 1.43054 53.9183 1.24161 54.0208 1.06843C54.1312 0.895251 54.2811 0.785044 54.4861 0.737813C54.6754 0.690582 54.8647 0.722069 55.0461 0.824404C55.2274 0.926738 55.3378 1.08418 55.3852 1.28885C55.4325 1.49351 55.4009 1.68244 55.2984 1.85562C55.188 2.0288 55.0382 2.13901 54.8331 2.18624C54.6281 2.23347 54.4388 2.20986 54.2732 2.10752ZM57.2779 1.38331C57.1044 1.2731 56.994 1.12354 56.9467 0.918867C56.8993 0.714198 56.9309 0.525272 57.0413 0.352091C57.1517 0.178909 57.3094 0.0687029 57.4987 0.0214716C57.7038 -0.0257598 57.893 0.00572779 58.0665 0.108062C58.24 0.218269 58.3504 0.367835 58.3978 0.572504C58.4451 0.785044 58.4214 0.97397 58.311 1.14715C58.2006 1.31246 58.0507 1.42267 57.8457 1.4699C57.6407 1.51713 57.4514 1.48564 57.2779 1.38331Z" fill="#371C50"/>
<path d="M84.7223 8.9873L89.1702 9.90832L88.9494 10.9631L84.5015 10.0421L84.7223 8.9873Z" fill="#371C50"/>
</svg>
