<svg width="207" height="207" viewBox="0 0 207 207" fill="none" xmlns="http://www.w3.org/2000/svg">
<path d="M100.045 2.25408C101.973 0.428782 104.992 0.428782 106.92 2.25408L111.077 6.18996C112.708 7.73344 115.167 8.00091 117.091 6.84401L121.998 3.89391C124.273 2.52577 127.221 3.17467 128.712 5.37178L131.926 10.1094C133.187 11.9673 135.531 12.7572 137.659 12.041L143.085 10.2146C145.601 9.36758 148.341 10.635 149.324 13.1012L151.445 18.4191C152.276 20.5045 154.396 21.7799 156.628 21.5378L162.32 20.9206C164.96 20.6343 167.363 22.461 167.793 25.081L168.721 30.7304C169.085 32.9458 170.881 34.6471 173.113 34.8905L178.804 35.5112C181.443 35.7991 183.398 38.0997 183.255 40.7509L182.946 46.4677C182.826 48.7096 184.214 50.7572 186.341 51.4747L191.766 53.3044C194.282 54.1529 195.696 56.8198 194.986 59.3783L193.456 64.8952C192.856 67.0587 193.772 69.3568 195.695 70.5149L200.6 73.468C202.875 74.8375 203.682 77.746 202.439 80.0922L199.759 85.1512C198.708 87.1351 199.108 89.5764 200.738 91.1208L204.893 95.0592C206.82 96.8857 206.983 99.8998 205.265 101.924L201.56 106.289C200.107 108 199.973 110.47 201.233 112.329L204.444 117.069C205.933 119.267 205.445 122.245 203.332 123.853L198.775 127.319C196.988 128.678 196.326 131.062 197.157 133.148L199.274 138.467C200.256 140.934 199.139 143.738 196.73 144.853L191.534 147.259C189.497 148.202 188.338 150.388 188.701 152.603L189.625 158.253C190.054 160.874 188.36 163.372 185.767 163.944L180.176 165.176C177.984 165.659 176.382 167.545 176.26 169.787L175.949 175.503C175.804 178.154 173.613 180.23 170.958 180.231L165.232 180.233C162.987 180.233 161.018 181.73 160.417 183.894L158.883 189.41C158.172 191.968 155.586 193.524 152.993 192.954L147.401 191.725C145.208 191.243 142.963 192.282 141.911 194.265L139.228 199.322C137.983 201.668 135.123 202.632 132.713 201.517L127.516 199.115C125.478 198.173 123.062 198.705 121.608 200.415L117.9 204.778C116.181 206.801 113.18 207.127 111.066 205.521L106.507 202.058C104.719 200.7 102.246 200.7 100.458 202.058L95.899 205.521C93.7848 207.127 90.784 206.801 89.0645 204.778L85.3568 200.416C83.9028 198.705 81.4869 198.173 79.4489 199.115L74.2523 201.517C71.8422 202.632 68.9817 201.668 67.7373 199.322L65.0541 194.265C64.0019 192.282 61.7567 191.243 59.5639 191.725L53.9723 192.954C51.3791 193.524 48.7927 191.968 48.0816 189.41L46.5483 183.894C45.947 181.73 43.9776 180.233 41.7324 180.233L36.0073 180.231C33.3523 180.23 31.1608 178.154 31.0163 175.503L30.7046 169.787C30.5824 167.545 28.9808 165.659 26.7883 165.176L21.1975 163.944C18.6046 163.372 16.9107 160.874 17.3394 158.253L18.2639 152.603C18.6265 150.388 17.4677 148.202 15.4304 147.259L10.2351 144.853C7.82581 143.738 6.70853 140.934 7.69052 138.467L9.80798 133.148C10.6384 131.062 9.97654 128.678 8.18962 127.319L3.63296 123.853C1.51977 122.245 1.03143 119.267 2.52074 117.069L5.73215 112.329C6.99152 110.47 6.85759 108 5.40465 106.289L1.69963 101.924C-0.018608 99.8998 0.144813 96.8857 2.07182 95.0592L6.22702 91.1208C7.8565 89.5764 8.25672 87.1351 7.20569 85.1512L4.52555 80.0922C3.2826 77.746 4.09015 74.8375 6.36474 73.468L11.2694 70.5149C13.1928 69.3568 14.1085 67.0587 13.5085 64.8952L11.9786 59.3783C11.269 56.8198 12.683 54.1529 15.1988 53.3044L20.6236 51.4747C22.751 50.7572 24.1393 48.7096 24.0184 46.4677L23.7102 40.7509C23.5673 38.0997 25.5215 35.7991 28.1609 35.5112L33.8522 34.8905C36.0841 34.6471 37.8801 32.9458 38.244 30.7304L39.1719 25.081C39.6023 22.461 42.0053 20.6343 44.6449 20.9206L50.3366 21.5378C52.5687 21.7799 54.6884 20.5045 55.52 18.4191L57.6407 13.1012C58.6242 10.635 61.3638 9.36758 63.8801 10.2146L69.3061 12.041C71.4339 12.7572 73.7782 11.9673 75.0387 10.1094L78.253 5.37178C79.7437 3.17467 82.6917 2.52577 84.9671 3.89391L89.8736 6.84401C91.7977 8.00091 94.257 7.73344 95.8874 6.18996L100.045 2.25408Z" fill="white"/>
</svg>
